# Blender 3.4.1
# www.blender.org
mtllib box_c.mtl
o Cube
v 0.981624 1.044654 -0.941620
v 1.000000 -1.000000 -1.000000
v 0.981624 1.044654 0.941620
v 1.000000 -1.000000 1.000000
v -0.979980 1.050909 -0.939516
v -1.000000 -1.000000 -1.000000
v -0.979980 1.050909 0.939516
v -1.000000 -1.000000 1.000000
v 1.000000 1.000000 1.000000
v -1.000000 1.000000 1.000000
v 1.000000 1.000000 -1.000000
v -1.000000 1.000000 -1.000000
v 1.000000 1.000000 1.000000
v -1.000000 1.000000 1.000000
v 1.000000 1.000000 -1.000000
v -1.000000 1.000000 -1.000000
v 0.968725 1.021196 0.968391
v -0.974610 1.035186 0.956131
v 0.968725 1.021196 -0.968391
v -0.974610 1.035186 -0.956131
v 0.947043 1.000000 0.947043
v -0.947043 1.000000 0.947043
v 0.947043 1.000000 -0.947043
v -0.947043 1.000000 -0.947043
v 0.947043 -0.913765 0.947043
v -0.947043 -0.913765 0.947043
v 0.947043 -0.913765 -0.947043
v -0.947043 -0.913765 -0.947043
v -1.000000 1.000000 1.000000
v -1.000000 1.000000 -1.000000
v -0.947043 1.000000 0.947043
v -0.947043 1.000000 -0.947043
v -1.864960 0.731081 0.956131
v -1.864960 0.731081 -0.956131
v -1.870330 0.746804 0.939516
v -1.870330 0.746804 -0.939516
v 1.000000 1.000000 -1.000000
v 1.000000 1.000000 1.000000
v 0.947043 1.000000 -0.947043
v 0.947043 1.000000 0.947043
v 1.729106 0.603076 -0.968391
v 1.729106 0.603076 0.968391
v 1.742005 0.626534 -0.941620
v 1.742005 0.626534 0.941620
vn -0.0000 1.0000 -0.0000
vn -0.0000 -0.0000 1.0000
vn -1.0000 -0.0000 -0.0000
vn -0.0000 -1.0000 -0.0000
vn 1.0000 -0.0000 -0.0000
vn -0.0000 -0.0000 -1.0000
vn 0.3407 0.6196 -0.7071
vn -0.2286 0.6691 0.7071
vn -0.8109 0.5852 -0.0000
vn 0.8396 0.5432 -0.0000
vn 0.7088 0.4064 0.5766
vn 0.7088 0.4064 -0.5766
vn -0.9463 -0.3232 -0.0000
vn 0.3232 -0.9463 -0.0000
vn -0.2286 0.6691 -0.7071
vn -0.3232 0.9463 -0.0000
vn 0.5610 0.8278 -0.0000
vn -0.7906 0.6123 -0.0000
vn -0.8050 0.3210 0.4989
vn -0.8050 0.3210 -0.4989
vn 0.8763 -0.4818 -0.0000
vn 0.4818 0.8763 -0.0000
vn 0.3407 0.6196 0.7071
vn -0.4818 -0.8763 -0.0000
vt 0.629983 0.507298
vt 0.375000 0.500000
vt 0.629983 0.742702
vt 0.375000 0.750000
vt 0.870652 0.507560
vt 0.125000 0.500000
vt 0.375000 0.250000
vt 0.870652 0.742440
vt 0.375000 1.000000
vt 0.375000 0.000000
vt 0.125000 0.750000
vt 0.625000 0.750000
vt 0.625000 1.000000
vt 0.625000 0.000000
vt 0.875000 0.750000
vt 0.625000 0.500000
vt 0.625000 0.250000
vt 0.875000 0.500000
vt 0.625000 0.750000
vt 0.875000 0.750000
vt 0.625000 0.500000
vt 0.875000 0.500000
vt 0.626637 0.746049
vt 0.872729 0.744516
vt 0.626637 0.503951
vt 0.872729 0.505484
vt 0.631620 0.743380
vt 0.868380 0.743380
vt 0.631620 0.506620
vt 0.868380 0.506620
vt 0.631620 0.743380
vt 0.868380 0.743380
vt 0.631620 0.506620
vt 0.868380 0.506620
vt 0.875000 0.750000
vt 0.875000 0.500000
vt 0.868380 0.743380
vt 0.868380 0.506620
vt 0.872729 0.744516
vt 0.872729 0.505484
vt 0.870652 0.742440
vt 0.870652 0.507560
vt 0.625000 0.500000
vt 0.625000 0.750000
vt 0.631620 0.506620
vt 0.631620 0.743380
vt 0.626637 0.503951
vt 0.626637 0.746049
vt 0.629983 0.507298
vt 0.629983 0.742702
s 0
usemtl Material
f 32/38/1 31/37/1 22/28/1 24/30/1
f 4/4/2 9/12/2 10/13/2 8/9/2
f 8/10/3 10/14/3 12/17/3 6/7/3
f 6/6/4 2/2/4 4/4/4 8/11/4
f 2/2/5 11/16/5 9/12/5 4/4/5
f 6/7/6 12/17/6 11/16/6 2/2/6
f 13/19/1 14/20/1 10/15/1 9/12/1
f 15/21/1 13/19/1 9/12/1 11/16/1
f 14/20/1 16/22/1 12/18/1 10/15/1
f 16/22/1 15/21/1 11/16/1 12/18/1
f 38/44/1 29/35/1 14/20/1 13/19/1
f 37/43/1 38/44/1 13/19/1 15/21/1
f 29/35/1 30/36/1 16/22/1 14/20/1
f 30/36/1 37/43/1 15/21/1 16/22/1
f 40/46/1 31/37/1 29/35/1 38/44/1
f 19/25/7 1/1/7 43/49/7 41/47/7
f 18/24/8 7/8/8 35/41/8 33/39/8
f 32/38/1 39/45/1 37/43/1 30/36/1
f 23/29/2 24/30/2 28/34/2 27/33/2
f 31/37/1 40/46/1 21/27/1 22/28/1
f 39/45/1 32/38/1 24/30/1 23/29/1
f 40/46/1 39/45/1 23/29/1 21/27/1
f 27/33/1 28/34/1 26/32/1 25/31/1
f 21/27/3 23/29/3 27/33/3 25/31/3
f 24/30/5 22/28/5 26/32/5 28/34/5
f 22/28/6 21/27/6 25/31/6 26/32/6
f 18/24/9 20/26/9 30/36/9 29/35/9
f 5/5/10 7/8/10 31/37/10 32/38/10
f 7/8/11 18/24/11 29/35/11 31/37/11
f 20/26/12 5/5/12 32/38/12 30/36/12
f 35/41/13 36/42/13 34/40/13 33/39/13
f 20/26/14 18/24/14 33/39/14 34/40/14
f 5/5/15 20/26/15 34/40/15 36/42/15
f 7/8/16 5/5/16 36/42/16 35/41/16
f 19/25/17 17/23/17 38/44/17 37/43/17
f 3/3/18 1/1/18 39/45/18 40/46/18
f 17/23/19 3/3/19 40/46/19 38/44/19
f 1/1/20 19/25/20 37/43/20 39/45/20
f 43/49/21 44/50/21 42/48/21 41/47/21
f 1/1/22 3/3/22 44/50/22 43/49/22
f 3/3/23 17/23/23 42/48/23 44/50/23
f 17/23/24 19/25/24 41/47/24 42/48/24
