# Blender 3.4.1
# www.blender.org
mtllib Building_Extra.mtl
o Circle
v -110.768082 20.097292 82.698265
v -110.768082 20.978464 82.813591
v -110.768082 21.825771 83.155144
v -110.768082 22.606653 83.709785
v -110.768082 23.291103 84.456215
v -110.768082 23.852816 85.365738
v -110.768082 24.270208 86.403397
v -110.768082 24.527237 87.529335
v -110.768082 24.614023 88.700272
v -110.768082 24.527237 89.871201
v -110.768082 24.270206 90.997131
v -110.768082 23.852814 92.034798
v -110.768082 23.291101 92.944321
v -110.768082 22.606651 93.690750
v -110.768082 21.825769 94.245392
v -110.768082 20.978462 94.586937
v -110.768082 20.097290 94.702271
v -110.768082 19.216122 94.586937
v -110.768082 18.368814 94.245392
v -110.768082 17.587933 93.690750
v -110.768082 16.903482 92.944321
v -110.768082 16.341768 92.034798
v -110.768082 15.924379 90.997131
v -110.768082 15.667351 89.871201
v -110.768082 15.580563 88.700264
v -110.768082 15.667351 87.529335
v -110.768082 15.924381 86.403397
v -110.768082 16.341770 85.365738
v -110.768082 16.903484 84.456207
v -110.768082 17.587934 83.709785
v -110.768082 18.368816 83.155144
v -110.768082 19.216124 82.813591
v -109.452568 20.978464 82.813591
v -109.452568 20.097292 82.698265
v -109.452568 21.825771 83.155144
v -109.452568 22.606653 83.709785
v -109.452568 23.291103 84.456215
v -109.452568 23.852816 85.365738
v -109.452568 24.270208 86.403397
v -109.452568 24.527237 87.529335
v -109.452568 24.614023 88.700272
v -109.452568 24.527237 89.871201
v -109.452568 24.270206 90.997131
v -109.452568 23.852814 92.034798
v -109.452568 23.291101 92.944321
v -109.452568 22.606651 93.690750
v -109.452568 21.825769 94.245392
v -109.452568 20.978462 94.586937
v -109.452568 20.097290 94.702271
v -109.452568 19.216122 94.586937
v -109.452568 18.368814 94.245392
v -109.452568 17.587933 93.690750
v -109.452568 16.903482 92.944321
v -109.452568 16.341768 92.034798
v -109.452568 15.924379 90.997131
v -109.452568 15.667351 89.871201
v -109.452568 15.580563 88.700264
v -109.452568 15.667351 87.529335
v -109.452568 15.924381 86.403397
v -109.452568 16.341770 85.365738
v -109.452568 16.903484 84.456207
v -109.452568 17.587934 83.709785
v -109.452568 18.368816 83.155144
v -109.452568 19.216124 82.813591
vn -1.0000 -0.0000 -0.0000
vn 1.0000 -0.0000 -0.0000
vn -0.0000 0.1298 -0.9915
vn -0.0000 -0.8508 -0.5255
vn -0.0000 0.3739 0.9275
vn -0.0000 0.3739 -0.9275
vn -0.0000 -0.7370 -0.6758
vn -0.0000 0.1298 0.9915
vn -0.0000 0.5791 -0.8153
vn -0.0000 -0.5791 -0.8153
vn -0.0000 -0.1298 0.9915
vn -0.0000 0.7370 -0.6758
vn -0.0000 -0.3739 -0.9275
vn -0.0000 -0.3739 0.9275
vn -0.0000 0.8508 -0.5255
vn -0.0000 -0.1298 -0.9915
vn -0.0000 -0.5791 0.8153
vn -0.0000 0.9278 -0.3732
vn -0.0000 -0.7370 0.6758
vn -0.0000 0.9749 -0.2226
vn -0.0000 -0.8508 0.5255
vn -0.0000 0.9973 -0.0739
vn -0.0000 -0.9278 0.3732
vn -0.0000 0.9973 0.0739
vn -0.0000 -0.9749 0.2226
vn -0.0000 0.9749 0.2226
vn -0.0000 -0.9973 0.0739
vn -0.0000 0.9278 0.3732
vn -0.0000 -0.9973 -0.0739
vn -0.0000 0.8508 0.5255
vn -0.0000 -0.9749 -0.2226
vn -0.0000 0.7370 0.6758
vn -0.0000 -0.9278 -0.3732
vn -0.0000 0.5791 0.8153
vt 0.000000 0.000000
vt 0.000000 0.000000
vt 0.000000 0.000000
vt 0.000000 0.000000
vt 0.000000 0.000000
vt 0.000000 0.000000
vt 0.000000 0.000000
vt 0.000000 0.000000
vt 0.000000 0.000000
vt 0.000000 0.000000
vt 0.000000 0.000000
vt 0.000000 0.000000
vt 0.000000 0.000000
vt 0.000000 0.000000
vt 0.000000 0.000000
vt 0.000000 0.000000
vt 0.000000 0.000000
vt 0.000000 0.000000
vt 0.000000 0.000000
vt 0.000000 0.000000
vt 0.000000 0.000000
vt 0.000000 0.000000
vt 0.000000 0.000000
vt 0.000000 0.000000
vt 0.000000 0.000000
vt 0.000000 0.000000
vt 0.000000 0.000000
vt 0.000000 0.000000
vt 0.000000 0.000000
vt 0.000000 0.000000
vt 0.000000 0.000000
vt 0.000000 0.000000
vt 0.000000 0.000000
vt 0.000000 0.000000
vt 0.000000 0.000000
vt 0.000000 0.000000
vt 0.000000 0.000000
vt 0.000000 0.000000
vt 0.000000 0.000000
vt 0.000000 0.000000
vt 0.000000 0.000000
vt 0.000000 0.000000
vt 0.000000 0.000000
vt 0.000000 0.000000
vt 0.000000 0.000000
vt 0.000000 0.000000
vt 0.000000 0.000000
vt 0.000000 0.000000
vt 0.000000 0.000000
vt 0.000000 0.000000
vt 0.000000 0.000000
vt 0.000000 0.000000
vt 0.000000 0.000000
vt 0.000000 0.000000
vt 0.000000 0.000000
vt 0.000000 0.000000
vt 0.000000 0.000000
vt 0.000000 0.000000
vt 0.000000 0.000000
vt 0.000000 0.000000
vt 0.000000 0.000000
vt 0.000000 0.000000
vt 0.000000 0.000000
vt 0.000000 0.000000
s 0
usemtl Material.001
f 2/2/1 1/1/1 32/32/1 31/31/1 30/30/1 29/29/1 28/28/1 27/27/1 26/26/1 25/25/1 24/24/1 23/23/1 22/22/1 21/21/1 20/20/1 19/19/1 18/18/1 17/17/1 16/16/1 15/15/1 14/14/1 13/13/1 12/12/1 11/11/1 10/10/1 9/9/1 8/8/1 7/7/1 6/6/1 5/5/1 4/4/1 3/3/1
f 33/33/2 35/35/2 36/36/2 37/37/2 38/38/2 39/39/2 40/40/2 41/41/2 42/42/2 43/43/2 44/44/2 45/45/2 46/46/2 47/47/2 48/48/2 49/49/2 50/50/2 51/51/2 52/52/2 53/53/2 54/54/2 55/55/2 56/56/2 57/57/2 58/58/2 59/59/2 60/60/2 61/61/2 62/62/2 63/63/2 64/64/2 34/34/2
f 1/1/3 2/2/3 33/33/3 34/34/3
f 28/28/4 29/29/4 61/61/4 60/60/4
f 15/15/5 16/16/5 48/48/5 47/47/5
f 2/2/6 3/3/6 35/35/6 33/33/6
f 29/29/7 30/30/7 62/62/7 61/61/7
f 16/16/8 17/17/8 49/49/8 48/48/8
f 3/3/9 4/4/9 36/36/9 35/35/9
f 30/30/10 31/31/10 63/63/10 62/62/10
f 17/17/11 18/18/11 50/50/11 49/49/11
f 4/4/12 5/5/12 37/37/12 36/36/12
f 31/31/13 32/32/13 64/64/13 63/63/13
f 18/18/14 19/19/14 51/51/14 50/50/14
f 5/5/15 6/6/15 38/38/15 37/37/15
f 32/32/16 1/1/16 34/34/16 64/64/16
f 19/19/17 20/20/17 52/52/17 51/51/17
f 6/6/18 7/7/18 39/39/18 38/38/18
f 20/20/19 21/21/19 53/53/19 52/52/19
f 7/7/20 8/8/20 40/40/20 39/39/20
f 21/21/21 22/22/21 54/54/21 53/53/21
f 8/8/22 9/9/22 41/41/22 40/40/22
f 22/22/23 23/23/23 55/55/23 54/54/23
f 9/9/24 10/10/24 42/42/24 41/41/24
f 23/23/25 24/24/25 56/56/25 55/55/25
f 10/10/26 11/11/26 43/43/26 42/42/26
f 24/24/27 25/25/27 57/57/27 56/56/27
f 11/11/28 12/12/28 44/44/28 43/43/28
f 25/25/29 26/26/29 58/58/29 57/57/29
f 12/12/30 13/13/30 45/45/30 44/44/30
f 26/26/31 27/27/31 59/59/31 58/58/31
f 13/13/32 14/14/32 46/46/32 45/45/32
f 27/27/33 28/28/33 60/60/33 59/59/33
f 14/14/34 15/15/34 47/47/34 46/46/34
o Cube.001
v -111.381516 3.357278 86.626656
v -111.512543 -2.010470 86.372208
v -111.381516 3.357277 94.946281
v -111.512543 -2.010472 97.363503
v -112.904594 3.357278 86.626656
v -113.012611 -2.010470 86.372208
v -112.904594 3.357277 94.946281
v -113.012611 -2.010472 97.363503
v -111.178848 8.002812 93.591888
v -113.168571 8.002812 93.591888
v -111.178848 8.165179 86.211746
v -113.168571 8.165179 86.211746
v -110.999290 13.003323 93.131294
v -113.666847 13.003323 93.131294
v -110.999290 13.246873 85.187737
v -113.666847 13.246873 85.187737
v -110.866081 18.429707 93.346939
v -114.312576 18.429707 93.346939
v -110.866081 18.429708 83.460693
v -114.312576 18.429708 83.460693
v -110.866959 25.497202 96.564644
v -115.103722 25.497202 96.564644
v -110.975700 25.780048 81.363617
v -115.212463 25.780048 81.363617
v -113.012611 -2.010471 93.713867
v -111.381516 3.357277 91.559967
v -112.904594 3.357277 91.559967
v -111.512543 -2.010471 93.713867
v -111.178848 8.002812 90.139244
v -113.168571 8.002812 90.139244
v -110.999290 13.003324 89.382767
v -113.666847 13.003324 89.382767
v -110.866081 18.429707 89.114166
v -114.312576 18.429707 89.114166
v -110.921326 23.854374 89.585777
v -115.158096 23.854374 89.585777
vn -0.0000 -0.0860 -0.9963
vn -0.0000 0.4106 0.9118
vn -0.9998 0.0201 -0.0000
vn -0.0000 -1.0000 -0.0000
vn 0.9997 -0.0244 -0.0000
vn -0.0000 0.0473 -0.9989
vn -0.9951 -0.0992 -0.0000
vn -0.0000 0.2799 0.9600
vn -0.9984 -0.0567 -0.0000
vn 0.9991 -0.0430 -0.0008
vn -0.0000 -0.3161 -0.9487
vn -0.0000 0.0917 0.9958
vn -0.0000 -0.1975 -0.9803
vn 0.9994 -0.0359 -0.0018
vn -0.9902 -0.1371 0.0249
vn 0.9997 -0.0252 -0.0006
vn -0.9930 -0.1182 -0.0000
vn -0.0000 -0.0397 0.9992
vn -0.0000 0.9734 -0.2291
vn -0.0000 -0.4144 0.9101
vn -0.0000 -0.2744 -0.9616
vn 0.9999 0.0126 -0.0022
vn 1.0000 0.0062 -0.0058
vn -0.0000 0.9737 0.2280
vn -0.9926 -0.1214 -0.0030
vn 0.9997 -0.0245 -0.0000
vn -0.9904 -0.1372 -0.0152
vn 0.9994 -0.0359 -0.0000
vn 0.9990 -0.0436 -0.0000
vn -0.9984 -0.0560 -0.0010
vn -0.9951 -0.0992 -0.0050
vt 0.625000 0.500000
vt 0.375000 0.500000
vt 0.625000 0.750000
vt 0.375000 0.750000
vt 0.625000 0.250000
vt 0.375000 0.250000
vt 0.125000 0.500000
vt 0.625000 1.000000
vt 0.625000 0.000000
vt 0.375000 1.000000
vt 0.125000 0.750000
vt 0.375000 0.000000
vt 0.625000 0.750000
vt 0.625000 0.000000
vt 0.625000 1.000000
vt 0.625000 0.500000
vt 0.625000 0.250000
vt 0.625000 0.750000
vt 0.625000 0.000000
vt 0.625000 1.000000
vt 0.625000 0.500000
vt 0.625000 0.250000
vt 0.625000 0.750000
vt 0.625000 0.000000
vt 0.625000 1.000000
vt 0.625000 0.500000
vt 0.625000 0.250000
vt 0.625000 0.750000
vt 0.625000 0.000000
vt 0.875000 0.750000
vt 0.625000 1.000000
vt 0.625000 0.500000
vt 0.875000 0.500000
vt 0.625000 0.250000
vt 0.125000 0.625000
vt 0.375000 0.125000
vt 0.625000 0.625000
vt 0.625000 0.125000
vt 0.375000 0.625000
vt 0.625000 0.625000
vt 0.625000 0.125000
vt 0.625000 0.625000
vt 0.625000 0.125000
vt 0.625000 0.625000
vt 0.625000 0.125000
vt 0.625000 0.625000
vt 0.875000 0.625000
vt 0.625000 0.125000
s 0
usemtl Material.005
f 65/65/35 69/69/35 76/81/35 75/80/35
f 68/68/36 67/67/36 71/72/36 72/74/36
f 89/100/37 91/102/37 69/69/37 70/70/37
f 89/99/38 92/103/38 68/68/38 72/75/38
f 92/103/39 90/101/39 67/67/39 68/68/39
f 70/70/40 69/69/40 65/65/40 66/66/40
f 94/105/41 74/78/41 78/83/41 96/107/41
f 71/72/42 67/67/42 73/77/42 74/79/42
f 91/102/43 71/73/43 74/78/43 94/105/43
f 90/101/44 65/65/44 75/80/44 93/104/44
f 79/85/45 80/86/45 84/91/45 83/90/45
f 74/79/46 73/77/46 77/82/46 78/84/46
f 75/80/47 76/81/47 80/86/47 79/85/47
f 93/104/48 75/80/48 79/85/48 95/106/48
f 98/109/49 82/88/49 86/93/49 100/112/49
f 95/106/50 79/85/50 83/90/50 97/108/50
f 96/107/51 78/83/51 82/88/51 98/109/51
f 78/84/52 77/82/52 81/87/52 82/89/52
f 99/110/53 100/111/53 86/94/53 85/92/53
f 82/89/54 81/87/54 85/92/54 86/95/54
f 83/90/55 84/91/55 88/98/55 87/96/55
f 97/108/56 83/90/56 87/96/56 99/110/56
f 81/87/57 97/108/57 99/110/57 85/92/57
f 87/96/58 88/97/58 100/111/58 99/110/58
f 80/86/59 96/107/59 98/109/59 84/91/59
f 77/82/60 95/106/60 97/108/60 81/87/60
f 84/91/61 98/109/61 100/112/61 88/98/61
f 73/77/62 93/104/62 95/106/62 77/82/62
f 67/67/63 90/101/63 93/104/63 73/77/63
f 69/69/64 91/102/64 94/105/64 76/81/64
f 76/81/65 94/105/65 96/107/65 80/86/65
f 66/66/39 65/65/39 90/101/39 92/103/39
f 70/71/38 66/66/38 92/103/38 89/99/38
f 72/76/37 71/73/37 91/102/37 89/100/37
o Plane.003
v 183.467926 0.693957 -124.088623
v -116.144539 0.693957 -124.088623
v 183.467926 0.693957 104.106110
v -116.144539 0.693957 104.106110
v 189.714310 -2.196784 109.408417
v 189.714310 -2.196784 -132.435516
v -122.685173 -2.196784 -132.435516
v -122.685173 -2.196784 109.408417
v 189.714310 0.693957 109.408417
v 189.714310 0.693957 -132.435516
v -122.685173 0.693957 -132.435516
v -122.685173 0.693957 109.408417
v 90.660934 0.693957 109.408417
v 144.385422 0.693957 109.408417
v 144.385422 -2.196784 109.408417
v 90.660934 -2.196784 109.408417
v 144.385422 0.693957 104.106110
v 90.660934 0.693957 104.106110
v 144.385422 -1.851736 109.408417
v 144.385422 -1.851736 104.106110
v 90.660934 -2.343940 109.408417
v 90.660934 -2.343940 104.106110
v -116.144539 -2.171980 104.106110
v 90.660934 -2.171980 104.106110
v 183.467926 -1.598523 104.106110
v 144.385422 -1.598523 104.106110
v 183.467926 -1.559767 -124.088623
v 183.467926 -1.559767 104.106110
v 183.467926 -1.746194 -124.088623
v -116.144539 -1.746194 -124.088623
v -116.144539 -1.459294 -124.088623
v -116.144539 -1.459294 104.106110
vn -0.0000 -0.0000 1.0000
vn -0.0000 -0.0000 -1.0000
vn -1.0000 -0.0000 -0.0000
vn 1.0000 -0.0000 -0.0000
vn -0.0000 1.0000 -0.0000
vt 0.036638 0.030062
vt 0.963362 0.030062
vt 0.036638 0.969938
vt 0.963362 0.969938
vt 0.000000 1.000000
vt 0.000000 0.000000
vt 1.000000 0.000000
vt 1.000000 1.000000
vt 0.000000 1.000000
vt 0.000000 0.000000
vt 1.000000 0.000000
vt 1.000000 1.000000
vt 0.317073 1.000000
vt 0.145099 1.000000
vt 0.145099 1.000000
vt 0.317073 1.000000
vt 0.157523 0.969938
vt 0.323697 0.969938
vt 0.145099 1.000000
vt 0.157523 0.969938
vt 0.317073 1.000000
vt 0.323697 0.969938
vt 0.963362 0.969938
vt 0.323697 0.969938
vt 0.036638 0.969938
vt 0.157523 0.969938
vt 0.036638 0.030062
vt 0.036638 0.969938
vt 0.036638 0.030062
vt 0.963362 0.030062
vt 0.963362 0.030062
vt 0.963362 0.969938
s 0
usemtl Material.006
f 109/121/66 114/126/66 115/127/66 105/117/66
f 116/128/66 113/125/66 112/124/66 108/120/66
f 110/122/67 106/118/67 107/119/67 111/123/67
f 111/123/68 107/119/68 108/120/68 112/124/68
f 109/121/69 105/117/69 106/118/69 110/122/69
f 103/115/70 109/121/70 110/122/70 101/113/70
f 101/113/70 110/122/70 111/123/70 102/114/70
f 102/114/70 111/123/70 112/124/70 104/116/70
f 104/116/70 112/124/70 113/125/70 118/130/70
f 117/129/70 114/126/70 109/121/70 103/115/70
f 117/129/68 120/132/68 119/131/68 114/126/68
f 113/125/69 121/133/69 122/134/69 118/130/69
f 118/130/67 124/136/67 123/135/67 104/116/67
f 103/115/67 125/137/67 126/138/67 117/129/67
f 101/113/68 127/139/68 128/140/68 103/115/68
f 102/114/66 130/142/66 129/141/66 101/113/66
f 104/116/69 132/144/69 131/143/69 102/114/69
o Plane.004
v -93.559196 -1.701373 83.986496
v -91.181389 -1.701373 83.986496
v -93.559196 -1.701373 104.538727
v -91.181389 -1.701373 104.538727
vn -0.0000 1.0000 -0.0000
vt 0.000000 0.000000
vt 1.000000 0.000000
vt 0.000000 1.000000
vt 1.000000 1.000000
s 0
usemtl Material.007
f 133/145/71 135/147/71 136/148/71 134/146/71
o Plane.005
v -79.716667 -1.701373 83.986496
v -77.338860 -1.701373 83.986496
v -79.716667 -1.701373 104.538727
v -77.338860 -1.701373 104.538727
vn -0.0000 1.0000 -0.0000
vt 0.000000 0.000000
vt 1.000000 0.000000
vt 0.000000 1.000000
vt 1.000000 1.000000
s 0
usemtl Material.007
f 137/149/72 139/151/72 140/152/72 138/150/72
o Plane.006
v -52.300385 -1.701373 83.986496
v -49.922585 -1.701373 83.986496
v -52.300385 -1.701373 104.538727
v -49.922585 -1.701373 104.538727
vn -0.0000 1.0000 -0.0000
vt 0.000000 0.000000
vt 1.000000 0.000000
vt 0.000000 1.000000
vt 1.000000 1.000000
s 0
usemtl Material.007
f 141/153/73 143/155/73 144/156/73 142/154/73
o Plane.007
v -66.142921 -1.701373 83.986496
v -63.765118 -1.701373 83.986496
v -66.142921 -1.701373 104.538727
v -63.765118 -1.701373 104.538727
vn -0.0000 1.0000 -0.0000
vt 0.000000 0.000000
vt 1.000000 0.000000
vt 0.000000 1.000000
vt 1.000000 1.000000
s 0
usemtl Material.007
f 145/157/74 147/159/74 148/160/74 146/158/74
o Plane.008
v -13.326281 -1.701373 83.986496
v -10.948477 -1.701373 83.986496
v -13.326281 -1.701373 104.538727
v -10.948477 -1.701373 104.538727
vn -0.0000 1.0000 -0.0000
vt 0.000000 0.000000
vt 1.000000 0.000000
vt 0.000000 1.000000
vt 1.000000 1.000000
s 0
usemtl Material.007
f 149/161/75 151/163/75 152/164/75 150/162/75
o Plane.009
v 0.516253 -1.701373 83.986496
v 2.894056 -1.701373 83.986496
v 0.516253 -1.701373 104.538727
v 2.894056 -1.701373 104.538727
vn -0.0000 1.0000 -0.0000
vt 0.000000 0.000000
vt 1.000000 0.000000
vt 0.000000 1.000000
vt 1.000000 1.000000
s 0
usemtl Material.007
f 153/165/76 155/167/76 156/168/76 154/166/76
o Plane.010
v -26.900019 -1.701373 83.986496
v -24.522215 -1.701373 83.986496
v -26.900019 -1.701373 104.538727
v -24.522215 -1.701373 104.538727
vn -0.0000 1.0000 -0.0000
vt 0.000000 0.000000
vt 1.000000 0.000000
vt 0.000000 1.000000
vt 1.000000 1.000000
s 0
usemtl Material.007
f 157/169/77 159/171/77 160/172/77 158/170/77
o Plane.011
v -40.742546 -1.701373 83.986496
v -38.364746 -1.701373 83.986496
v -40.742546 -1.701373 104.538727
v -38.364746 -1.701373 104.538727
vn -0.0000 1.0000 -0.0000
vt 0.000000 0.000000
vt 1.000000 0.000000
vt 0.000000 1.000000
vt 1.000000 1.000000
s 0
usemtl Material.007
f 161/173/78 163/175/78 164/176/78 162/174/78
o Plane.012
v 12.746061 -1.701373 83.986496
v 15.123865 -1.701373 83.986496
v 12.746061 -1.701373 104.538727
v 15.123865 -1.701373 104.538727
vn -0.0000 1.0000 -0.0000
vt 0.000000 0.000000
vt 1.000000 0.000000
vt 0.000000 1.000000
vt 1.000000 1.000000
s 0
usemtl Material.007
f 165/177/79 167/179/79 168/180/79 166/178/79
o Plane.013
v 26.588594 -1.701373 83.986496
v 28.966398 -1.701373 83.986496
v 26.588594 -1.701373 104.538727
v 28.966398 -1.701373 104.538727
vn -0.0000 1.0000 -0.0000
vt 0.000000 0.000000
vt 1.000000 0.000000
vt 0.000000 1.000000
vt 1.000000 1.000000
s 0
usemtl Material.007
f 169/181/80 171/183/80 172/184/80 170/182/80
o Plane.014
v 55.831619 -2.267963 83.986496
v 90.350708 -2.267963 83.986496
v 55.831619 -2.267963 104.538727
v 90.350708 -2.267963 104.538727
v 55.831619 -1.593214 104.538727
v 55.831619 -1.593214 83.986496
v 90.350708 -1.593214 83.986496
v 90.350708 -1.593214 104.538727
vn -0.0000 -1.0000 -0.0000
vn -0.0000 1.0000 -0.0000
vn -0.0000 -0.0000 -1.0000
vn 1.0000 -0.0000 -0.0000
vn -1.0000 -0.0000 -0.0000
vn -0.0000 -0.0000 1.0000
vt 0.000000 0.000000
vt 1.000000 0.000000
vt 0.000000 1.000000
vt 1.000000 1.000000
vt 0.000000 1.000000
vt 0.000000 0.000000
vt 1.000000 0.000000
vt 1.000000 1.000000
s 0
usemtl Material.008
f 173/185/81 174/186/81 176/188/81 175/187/81
f 178/190/82 177/189/82 180/192/82 179/191/82
f 173/185/83 178/190/83 179/191/83 174/186/83
f 174/186/84 179/191/84 180/192/84 176/188/84
f 175/187/85 177/189/85 178/190/85 173/185/85
f 176/188/86 180/192/86 177/189/86 175/187/86
o Plane.015
v 40.162338 -1.701373 83.986496
v 42.540138 -1.701373 83.986496
v 40.162338 -1.701373 104.538727
v 42.540138 -1.701373 104.538727
vn -0.0000 1.0000 -0.0000
vt 0.000000 0.000000
vt 1.000000 0.000000
vt 0.000000 1.000000
vt 1.000000 1.000000
s 0
usemtl Material.007
f 181/193/87 183/195/87 184/196/87 182/194/87
o Plane.016
v -116.095917 -2.267963 83.986496
v -94.173195 -2.267963 83.986496
v -116.095917 -2.267963 104.538727
v -94.173195 -2.267963 104.538727
v -116.095917 -1.593214 104.538727
v -116.095917 -1.593214 83.986496
v -94.173195 -1.593214 83.986496
v -94.173195 -1.593214 104.538727
vn -0.0000 -1.0000 -0.0000
vn -0.0000 1.0000 -0.0000
vn -0.0000 -0.0000 -1.0000
vn 1.0000 -0.0000 -0.0000
vn -1.0000 -0.0000 -0.0000
vn -0.0000 -0.0000 1.0000
vt 0.000000 0.000000
vt 1.000000 0.000000
vt 0.000000 1.000000
vt 1.000000 1.000000
vt 0.000000 1.000000
vt 0.000000 0.000000
vt 1.000000 0.000000
vt 1.000000 1.000000
s 0
usemtl Material.008
f 185/197/88 186/198/88 188/200/88 187/199/88
f 190/202/89 189/201/89 192/204/89 191/203/89
f 185/197/90 190/202/90 191/203/90 186/198/90
f 186/198/91 191/203/91 192/204/91 188/200/91
f 187/199/92 189/201/92 190/202/92 185/197/92
f 188/200/93 192/204/93 189/201/93 187/199/93
o Plane.017
v 160.294617 -2.267963 -125.023598
v 184.719543 -2.267963 -125.023598
v 160.294617 -2.267963 104.538727
v 184.719543 -2.267963 104.538727
v 160.294617 -1.593214 104.538727
v 160.294617 -1.593214 -125.023598
v 184.719543 -1.593214 -125.023598
v 184.719543 -1.593214 104.538727
vn -0.0000 -1.0000 -0.0000
vn -0.0000 1.0000 -0.0000
vn -0.0000 -0.0000 -1.0000
vn 1.0000 -0.0000 -0.0000
vn -1.0000 -0.0000 -0.0000
vn -0.0000 -0.0000 1.0000
vt 0.000000 0.000000
vt 1.000000 0.000000
vt 0.000000 1.000000
vt 1.000000 1.000000
vt 0.000000 1.000000
vt 0.000000 0.000000
vt 1.000000 0.000000
vt 1.000000 1.000000
s 0
usemtl Material.008
f 193/205/94 194/206/94 196/208/94 195/207/94
f 198/210/95 197/209/95 200/212/95 199/211/95
f 193/205/96 198/210/96 199/211/96 194/206/96
f 194/206/97 199/211/97 200/212/97 196/208/97
f 195/207/98 197/209/98 198/210/98 193/205/98
f 196/208/99 200/212/99 197/209/99 195/207/99
