# Blender 3.4.1
# www.blender.org
mtllib Fry_3.mtl
o Cube.003
v 3.981284 0.098177 3.786611
v 4.133623 0.405991 3.786611
v 3.981284 0.098177 3.478796
v 4.133623 0.405991 3.478796
v 4.441437 0.098177 3.786611
v 4.441437 0.405991 3.786611
v 4.441437 0.098177 3.478796
v 4.441437 0.405991 3.478796
v 5.006081 0.405991 3.478796
v 5.006081 0.098177 3.478796
v 5.006081 0.098177 3.786611
v 5.006081 0.405991 3.786611
v 5.818385 0.405991 3.478796
v 5.818385 0.098177 3.478796
v 5.818385 0.098177 3.786611
v 5.818385 0.405991 3.786611
v 6.748853 0.405991 3.478796
v 6.748853 0.098177 3.478796
v 6.748853 0.098177 3.786611
v 6.748853 0.405991 3.786611
v 7.355438 0.405991 3.478796
v 7.355438 0.098177 3.478796
v 7.355438 0.098177 3.786611
v 7.355438 0.405991 3.786611
v 7.707556 0.405991 3.478796
v 7.707556 0.405991 3.786611
v 8.019676 0.098177 3.786611
v 7.961153 0.248737 3.786611
v 7.961153 0.248737 3.478796
v 8.019676 0.098177 3.478796
vn -0.8962 0.4436 -0.0000
vn -0.0000 -0.0000 -1.0000
vn -0.0000 1.0000 -0.0000
vn -0.0000 -0.0000 1.0000
vn -0.0000 -1.0000 -0.0000
vn 0.5270 0.8499 -0.0000
vn 0.9321 0.3623 -0.0000
vt 0.375000 0.000000
vt 0.375000 1.000000
vt 0.125000 0.750000
vt 0.625000 0.000000
vt 0.625000 1.000000
vt 0.875000 0.750000
vt 0.375000 0.250000
vt 0.125000 0.500000
vt 0.625000 0.250000
vt 0.875000 0.500000
vt 0.375000 0.750000
vt 0.625000 0.750000
vt 0.375000 0.500000
vt 0.625000 0.500000
vt 0.625000 0.500000
vt 0.375000 0.500000
vt 0.375000 0.750000
vt 0.625000 0.750000
vt 0.625000 0.500000
vt 0.375000 0.500000
vt 0.375000 0.750000
vt 0.625000 0.750000
vt 0.625000 0.500000
vt 0.375000 0.500000
vt 0.375000 0.750000
vt 0.625000 0.750000
vt 0.625000 0.500000
vt 0.375000 0.500000
vt 0.375000 0.750000
vt 0.625000 0.750000
vt 0.625000 0.500000
vt 0.625000 0.750000
vt 0.375000 0.750000
vt 0.536506 0.094825
vt 0.497282 0.750000
vt 0.592492 0.094825
vt 0.497282 0.500000
vt 0.592492 0.209284
vt 0.375000 0.500000
vt 0.536506 0.209284
s 0
usemtl Material.001
f 1/1/1 2/4/1 4/9/1 3/7/1
f 3/7/2 4/9/2 8/14/2 7/13/2
f 8/14/3 6/12/3 12/18/3 9/15/3
f 5/11/4 6/12/4 2/5/4 1/2/4
f 3/8/5 7/13/5 5/11/5 1/3/5
f 8/14/3 4/10/3 2/6/3 6/12/3
f 10/16/2 9/15/2 13/19/2 14/20/2
f 7/13/2 8/14/2 9/15/2 10/16/2
f 6/12/4 5/11/4 11/17/4 12/18/4
f 5/11/5 7/13/5 10/16/5 11/17/5
f 16/22/4 15/21/4 19/25/4 20/26/4
f 12/18/4 11/17/4 15/21/4 16/22/4
f 11/17/5 10/16/5 14/20/5 15/21/5
f 9/15/3 12/18/3 16/22/3 13/19/3
f 17/23/3 20/26/3 24/30/3 21/27/3
f 15/21/5 14/20/5 18/24/5 19/25/5
f 13/19/3 16/22/3 20/26/3 17/23/3
f 14/20/2 13/19/2 17/23/2 18/24/2
f 28/35/4 26/32/4 24/30/4 23/29/4 27/33/4
f 18/24/2 17/23/2 21/27/2 22/28/2
f 20/26/4 19/25/4 23/29/4 24/30/4
f 19/25/5 18/24/5 22/28/5 23/29/5
f 29/37/6 25/31/6 26/32/6 28/35/6
f 23/29/5 22/28/5 30/39/5 27/33/5
f 21/27/3 24/30/3 26/32/3 25/31/3
f 25/31/2 29/37/2 30/39/2 22/28/2 21/27/2
usemtl 
f 29/38/7 28/36/7 27/34/7 30/40/7
