# Blender 3.4.1
# www.blender.org
mtllib Fry_Container.mtl
o Cube
v 1.114610 1.140066 -0.633083
v 0.980989 1.329195 -0.486697
v 1.000000 0.122983 -0.633083
v 0.879607 0.281311 -0.487056
v 1.114610 1.140066 0.633083
v 0.980418 1.327582 0.453006
v 1.000000 0.122983 0.633083
v 0.879607 0.281311 0.453007
v -1.114610 1.140066 -0.633083
v -0.979848 1.329195 -0.486697
v -1.000000 0.122983 -0.633083
v -0.879607 0.281311 -0.487056
v -1.114610 1.140066 0.633083
v -0.980418 1.327582 0.453006
v -1.000000 0.122983 0.633083
v -0.879607 0.281311 0.453007
v 1.305358 2.169231 0.633083
v 1.148201 2.386280 0.453006
v -1.305358 2.169231 0.633083
v -1.148201 2.386280 0.453006
v 1.314043 2.193799 -0.627618
v 1.162871 2.427777 -0.477825
v -1.296673 2.193799 -0.627618
v -1.133532 2.427777 -0.477825
v 1.478387 2.977860 0.633083
v -1.478387 2.977860 0.633083
v 1.478387 2.977860 -0.633083
v -1.478387 2.977860 -0.633083
v -1.256441 2.977860 0.453006
v -1.256441 2.977860 -0.487056
v 1.256441 2.977860 0.453006
v 1.256441 2.977860 -0.487056
v -0.556872 2.270090 -0.610648
v -0.184113 2.161151 -0.610562
v -0.395569 2.207812 -0.610562
v 0.255699 2.161151 -0.610562
v 0.467155 2.207812 -0.610562
v 0.628184 2.270090 -0.610648
v 0.035793 2.145396 -0.610562
v -1.158214 2.978403 -0.632962
v 1.169154 2.978265 -0.632993
v 1.169154 2.978265 -0.486966
v -1.158214 2.978403 -0.486935
v -1.134080 2.870162 -0.631739
v -0.913251 2.476410 -0.617992
v -1.026432 2.592669 -0.623665
v -1.098194 2.724941 -0.628459
v -0.590447 2.283586 -0.610562
v 0.662033 2.283586 -0.610562
v 0.829159 2.375133 -0.612881
v -0.764946 2.375133 -0.612881
v 0.961218 2.476410 -0.617992
v 1.156245 2.869342 -0.631921
v 1.056366 2.592669 -0.623665
v 1.112893 2.724941 -0.628459
v -0.886437 2.458842 -0.470915
v -0.590447 2.283586 -0.464535
v -0.764946 2.375133 -0.466854
v -0.395569 2.207812 -0.464535
v -0.184113 2.161151 -0.464535
v 0.255699 2.161151 -0.464535
v 0.467155 2.207812 -0.464535
v 0.829159 2.375133 -0.466854
v 0.937741 2.458842 -0.470915
v 0.662033 2.283586 -0.464535
v 0.035793 2.145396 -0.464535
v -0.913251 2.476410 -0.471965
v 0.961218 2.476410 -0.471965
v 1.112893 2.724941 -0.482431
v 1.156245 2.869342 -0.485894
v 1.056366 2.592669 -0.477638
v -1.098194 2.724941 -0.482431
v -1.134080 2.870162 -0.485712
v -1.026432 2.592669 -0.477638
v 0.021611 1.329195 -0.486697
v 0.026964 2.977860 0.453006
v 0.021041 1.327582 0.453006
v 0.018877 0.281311 0.453007
v 0.018877 0.281311 -0.487056
v 0.024641 2.386280 0.453006
v 1.478387 2.977860 0.633083
v 1.478387 2.977860 -0.633083
v -1.256441 2.977860 0.453006
v -1.256441 2.977860 -0.487056
v 0.026964 2.977860 0.453006
v 1.256441 2.977860 0.453006
v 1.256441 2.977860 -0.487056
v -1.478387 2.977860 0.633083
v -1.478387 2.977860 -0.633083
vn -0.9843 -0.1762 -0.0051
vn -0.0000 -0.0000 1.0000
vn -0.9937 -0.1120 -0.0000
vn -0.0000 -1.0000 -0.0000
vn 0.9937 -0.1120 -0.0000
vn -0.0000 -0.0000 -1.0000
vn -0.9761 -0.2174 -0.0055
vn 0.9829 -0.1841 0.0016
vn -0.0000 0.0175 -0.9998
vn -0.0000 1.0000 -0.0000
vn -0.0026 1.0000 0.0020
vn 0.0020 1.0000 0.0016
vn 0.0180 -0.0052 -0.9998
vn -0.0192 -0.0054 -0.9998
vn 0.9783 -0.2072 0.0013
vn 0.9890 0.1473 0.0115
vn 0.9954 0.0956 0.0004
vn -0.9954 0.0961 -0.0002
vn -0.0000 -0.0003 1.0000
vn 0.9800 0.1985 0.0121
vn -0.9871 0.1600 -0.0044
vn -0.0000 -0.0215 0.9998
vn 0.0148 0.0187 0.9997
vn -0.0139 0.0177 0.9997
vn -0.9847 0.1740 -0.0039
vn -0.9931 0.1177 -0.0000
vn -0.9578 0.2875 -0.0000
vn -0.9196 0.3930 -0.0000
vn -0.7739 0.6333 -0.0000
vn -0.6086 0.7935 -0.0012
vn -0.4804 0.8770 -0.0000
vn -0.3624 0.9320 -0.0011
vn -0.2155 0.9765 -0.0000
vn -0.0715 0.9974 -0.0000
vn 0.0715 0.9974 -0.0000
vn 0.2155 0.9765 -0.0000
vn 0.3624 0.9320 -0.0014
vn 0.4646 0.8855 -0.0000
vn 0.5640 0.8258 -0.0021
vn 0.7165 0.6976 -0.0000
vn 0.8790 0.4769 -0.0000
vn 0.9708 0.2399 -0.0000
vn 0.9760 0.2176 -0.0000
vt 0.625000 0.500000
vt 0.625000 0.500000
vt 0.375000 0.500000
vt 0.375000 0.500000
vt 0.625000 0.750000
vt 0.625000 0.750000
vt 0.375000 0.750000
vt 0.375000 0.750000
vt 0.625000 0.250000
vt 0.625000 0.250000
vt 0.125000 0.500000
vt 0.375000 0.250000
vt 0.375000 0.250000
vt 0.125000 0.500000
vt 0.625000 0.000000
vt 0.625000 1.000000
vt 0.625000 0.000000
vt 0.625000 1.000000
vt 0.375000 1.000000
vt 0.375000 0.000000
vt 0.125000 0.750000
vt 0.375000 1.000000
vt 0.375000 0.000000
vt 0.125000 0.750000
vt 0.625000 0.750000
vt 0.625000 0.750000
vt 0.625000 0.000000
vt 0.625000 1.000000
vt 0.625000 0.000000
vt 0.625000 1.000000
vt 0.625000 0.500000
vt 0.625000 0.500000
vt 0.625000 0.250000
vt 0.625000 0.250000
vt 0.625000 0.750000
vt 0.875000 0.750000
vt 0.625000 0.500000
vt 0.875000 0.500000
vt 0.856234 0.714445
vt 0.856234 0.528833
vt 0.643766 0.714445
vt 0.643766 0.528833
vt 0.625000 0.318260
vt 0.411656 0.547124
vt 0.625000 0.353711
vt 0.468750 0.547124
vt 0.625000 0.333456
vt 0.437500 0.547124
vt 0.625000 0.396289
vt 0.531250 0.547124
vt 0.625000 0.416544
vt 0.562500 0.547124
vt 0.625000 0.431740
vt 0.588344 0.547124
vt 0.625000 0.375000
vt 0.500000 0.547124
vt 0.844005 0.500000
vt 0.625000 0.280995
vt 0.227781 0.547124
vt 0.655995 0.500000
vt 0.625000 0.469005
vt 0.772219 0.547124
vt 0.655995 0.528833
vt 0.625000 0.485610
vt 0.772219 0.789310
vt 0.844005 0.528833
vt 0.625000 0.264390
vt 0.227781 0.789310
vt 0.625000 0.278367
vt 0.250000 0.547124
vt 0.625000 0.288256
vt 0.343750 0.547124
vt 0.625000 0.281006
vt 0.312500 0.547124
vt 0.625000 0.277810
vt 0.281250 0.547124
vt 0.625000 0.315110
vt 0.406250 0.547124
vt 0.625000 0.434890
vt 0.593750 0.547124
vt 0.625000 0.450278
vt 0.625000 0.547124
vt 0.625000 0.299722
vt 0.375000 0.547124
vt 0.625000 0.461744
vt 0.656250 0.547124
vt 0.625000 0.471633
vt 0.750000 0.547124
vt 0.625000 0.468994
vt 0.687500 0.547124
vt 0.625000 0.472191
vt 0.718750 0.547124
vt 0.625000 0.275705
vt 0.349356 0.789310
vt 0.625000 0.305249
vt 0.406250 0.789310
vt 0.625000 0.287374
vt 0.375000 0.789310
vt 0.625000 0.326425
vt 0.437500 0.789310
vt 0.625000 0.350055
vt 0.468750 0.789310
vt 0.625000 0.399945
vt 0.531250 0.789310
vt 0.625000 0.423575
vt 0.562500 0.789310
vt 0.625000 0.462626
vt 0.625000 0.789310
vt 0.625000 0.474295
vt 0.650644 0.789310
vt 0.625000 0.444751
vt 0.593750 0.789310
vt 0.625000 0.375000
vt 0.500000 0.789310
vt 0.625000 0.273212
vt 0.343750 0.789310
vt 0.625000 0.476788
vt 0.656250 0.789310
vt 0.625000 0.489557
vt 0.718750 0.789310
vt 0.625000 0.488893
vt 0.750000 0.789310
vt 0.625000 0.485673
vt 0.687500 0.789310
vt 0.625000 0.260443
vt 0.281250 0.789310
vt 0.625000 0.261107
vt 0.250000 0.789310
vt 0.625000 0.264327
vt 0.312500 0.789310
vt 0.625000 0.377683
vt 0.747720 0.714445
vt 0.625000 0.872317
vt 0.252683 0.750000
vt 0.375000 0.872317
vt 0.375000 0.377683
vt 0.252683 0.500000
vt 0.625000 0.872317
vt 0.625000 0.750000
vt 0.625000 0.500000
vt 0.625000 0.000000
vt 0.625000 1.000000
vt 0.856234 0.714445
vt 0.625000 0.250000
vt 0.856234 0.528833
vt 0.625000 0.872317
vt 0.747720 0.714445
vt 0.625000 0.750000
vt 0.643766 0.714445
vt 0.625000 0.500000
vt 0.643766 0.528833
vt 0.625000 0.000000
vt 0.625000 1.000000
vt 0.875000 0.750000
vt 0.625000 0.250000
vt 0.875000 0.500000
s 0
usemtl Material
f 9/9/1 13/15/1 19/27/1 23/33/1
f 7/7/2 5/5/2 13/16/2 15/19/2
f 15/20/3 13/15/3 9/9/3 11/12/3
f 11/11/4 3/3/4 7/7/4 15/21/4
f 3/3/5 1/1/5 5/5/5 7/7/5
f 11/12/6 9/9/6 1/1/6 3/3/6
f 23/33/7 19/27/7 88/152/7 89/155/7
f 5/5/8 1/1/8 21/31/8 17/25/8
f 38/53/9 21/31/9 1/1/9 9/9/9 23/33/9 33/43/9 35/47/9 34/45/9 39/55/9 36/49/9 37/51/9
f 13/16/2 5/5/2 17/25/2 19/28/2
f 30/40/10 28/38/10 26/36/10 29/39/10
f 89/156/11 84/145/11 43/66/11 40/57/11
f 87/151/12 82/140/12 41/60/12 42/63/12
f 19/28/2 17/25/2 81/139/2 88/153/2
f 33/43/13 23/33/13 89/155/13 40/58/13 44/69/13 47/75/13 46/73/13 45/71/13 51/83/13 48/77/13
f 53/87/14 41/61/14 82/140/14 21/31/14 38/53/14 49/79/14 50/81/14 52/85/14 54/89/14 55/91/14
f 17/25/15 21/31/15 82/140/15 81/139/15
f 20/29/16 14/17/16 10/10/16 24/34/16
f 78/135/6 16/22/6 14/18/6 77/133/6
f 16/23/17 12/13/17 10/10/17 14/17/17
f 79/137/10 78/134/10 8/8/10 4/4/10
f 4/4/18 8/8/18 6/6/18 2/2/18
f 79/136/19 4/4/19 2/2/19 75/131/19
f 83/141/20 20/29/20 24/34/20 84/144/20
f 6/6/21 18/26/21 22/32/21 2/2/21
f 56/93/22 24/34/22 10/10/22 75/131/22 2/2/22 22/32/22 64/109/22 63/107/22 65/111/22 62/105/22 61/103/22 66/113/22 60/101/22 59/99/22 57/95/22 58/97/22
f 77/133/6 80/138/6 18/26/6 6/6/6
f 80/138/6 20/30/6 83/142/6 85/146/6
f 68/117/23 64/109/23 22/32/23 87/150/23 42/64/23 70/121/23 69/119/23 71/123/23
f 43/67/24 84/144/24 24/34/24 56/93/24 67/115/24 74/129/24 72/125/24 73/127/24
f 22/32/25 18/26/25 86/148/25 87/150/25
f 18/26/6 80/138/6 85/146/6 86/148/6
f 14/18/6 20/30/6 80/138/6 77/133/6
f 12/13/19 79/136/19 75/131/19 10/10/19
f 12/14/10 16/24/10 78/134/10 79/137/10
f 8/8/6 78/135/6 77/133/6 6/6/6
f 27/37/10 25/35/10 81/139/10 82/140/10
f 30/40/10 29/39/10 83/143/10 84/145/10
f 76/132/10 31/41/10 86/149/10 85/147/10
f 32/42/10 27/37/10 82/140/10 87/151/10
f 25/35/10 26/36/10 88/154/10 81/139/10
f 26/36/10 28/38/10 89/156/10 88/154/10
f 28/38/10 30/40/10 84/145/10 89/156/10
f 31/41/10 32/42/10 87/151/10 86/149/10
f 29/39/10 76/132/10 85/147/10 83/143/10
f 29/39/10 26/36/10 25/35/10 31/41/10 76/132/10
f 31/41/10 25/35/10 27/37/10 32/42/10
usemtl 
f 42/65/26 41/62/26 53/88/26 70/122/26
f 55/92/27 69/120/27 70/122/27 53/88/27
f 54/90/28 71/124/28 69/120/28 55/92/28
f 52/86/29 68/118/29 71/124/29 54/90/29
f 50/82/30 63/108/30 64/110/30 68/118/30 52/86/30
f 50/82/31 49/80/31 65/112/31 63/108/31
f 65/112/32 49/80/32 38/54/32 37/52/32 62/106/32
f 62/106/33 37/52/33 36/50/33 61/104/33
f 61/104/34 36/50/34 39/56/34 66/114/34
f 66/114/35 39/56/35 34/46/35 60/102/35
f 60/102/36 34/46/36 35/48/36 59/100/36
f 59/100/37 35/48/37 33/44/37 48/78/37 57/96/37
f 48/78/38 51/84/38 58/98/38 57/96/38
f 51/84/39 45/72/39 67/116/39 56/94/39 58/98/39
f 46/74/40 74/130/40 67/116/40 45/72/40
f 47/76/41 72/126/41 74/130/41 46/74/41
f 44/70/42 73/128/42 72/126/42 47/76/42
f 40/59/43 43/68/43 73/128/43 44/70/43
